<?xml version="1.0" encoding="UTF-8"?>
<!DOCTYPE svg PUBLIC "-//W3C//DTD SVG 1.1//EN" "http://www.w3.org/Graphics/SVG/1.1/DTD/svg11.dtd">
<!-- Creator: Corel DESIGNER -->
<svg xmlns="http://www.w3.org/2000/svg" xml:space="preserve" width="40mm" height="40mm" version="1.1" style="shape-rendering:geometricPrecision; text-rendering:geometricPrecision; image-rendering:optimizeQuality; fill-rule:evenodd; clip-rule:evenodd"
viewBox="0 0 20 20"
 xmlns:xlink="http://www.w3.org/1999/xlink"
 xmlns:xodm="http://www.corel.com/coreldraw/odm/2003">
 <defs>
  <style type="text/css">
   <![CDATA[
    .fil0 {fill:#008E5E}
    .fil1 {fill:white}
   ]]>
  </style>
 </defs>
<symbol id="ISO_x0020_7010_x0020_E025" viewBox="-37.5 44.25 35 35">
 <polygon class="fil0" points="-37.5,44.25 -2.5,44.25 -2.5,79.25 -37.5,79.25 "/>
 <path class="fil1" d="M-13.2307 67.1877c0,-0.1346 0.0592,-0.2554 0.1529,-0.3378l-0.593 -0.6489c-0.0809,0.0778 -0.1908,0.1257 -0.312,0.1257 -0.2484,0 -0.4498,-0.2014 -0.4498,-0.4498 0,-0.1356 0.0601,-0.2573 0.155,-0.3398l-0.5931 -0.649c-0.0811,0.0791 -0.1918,0.1278 -0.314,0.1278 -0.2484,0 -0.4498,-0.2015 -0.4498,-0.4499 0,-0.1367 0.0609,-0.2591 0.1572,-0.3416l-0.5933 -0.6491c-0.0813,0.0802 -0.1929,0.1298 -0.3161,0.1298 -0.2485,0 -0.4499,-0.2014 -0.4499,-0.4498 0,-0.1378 0.0619,-0.261 0.1594,-0.3435l-0.5754 -0.6296 -2.4742 2.5553c-0.125,0.129 -0.1273,0.3338 -0.0053,0.4657l8.1151 8.7698c0.1158,0.1251 0.3045,0.1448 0.444,0.047l2.8896 -2.0243 -0.5881 -0.6434c-0.08,0.0731 -0.1866,0.1178 -0.3035,0.1178 -0.2485,0 -0.4498,-0.2014 -0.4498,-0.4498 0,-0.1315 0.0564,-0.2498 0.1463,-0.332l-0.5929 -0.6487c-0.0803,0.0743 -0.1876,0.1198 -0.3056,0.1198 -0.2485,0 -0.4498,-0.2014 -0.4498,-0.4498 0,-0.1325 0.0573,-0.2517 0.1485,-0.334l-0.5929 -0.6487c-0.0805,0.0755 -0.1887,0.1218 -0.3078,0.1218 -0.2484,0 -0.4499,-0.2014 -0.4499,-0.4498 0,-0.1336 0.0583,-0.2536 0.1507,-0.336l-0.5929 -0.6487c-0.0807,0.0767 -0.1898,0.1238 -0.3099,0.1238 -0.2485,0 -0.4499,-0.2015 -0.4499,-0.4499zm-4.3117 -5.5189l-3.6534 -4.0128c-0.2183,-0.2398 -0.576,-0.2791 -0.8412,-0.0925l-2.3361 1.6436 -0.5384 -0.3402 -1.6963 1.1934 -1.1927 -0.3072 0.1137 -1.2264 1.6959 -1.1931 -0.1387 -0.6231 5.5829 -3.9279c1.279,0.2775 1.9243,1.0618 1.7565,2.4966 -0.1338,0.1945 -0.1761,0.4295 -0.0389,0.7445l13.0383 14.1978c0.2604,0.2836 0.2165,0.7291 -0.0983,0.9526 -0.5158,0.3662 -1.0306,0.7414 -1.5486,1.1032l-3.3721 2.3624c-0.4009,0.2809 -0.9398,0.2227 -1.2721,-0.1365l-8.1151 -8.7698c-0.3508,-0.3791 -0.3442,-0.9674 0.0151,-1.3385l2.6395 -2.726z"/>
 <path class="fil1" d="M-21.8427 53.0637c0.1426,-0.0789 0.3328,-0.1865 0.4324,-0.3104 -0.3534,-0.1814 -2.1193,-2.0162 -2.7333,-2.6093 0.4827,0.8463 1.6577,2.1179 2.3009,2.9197zm-9.2598 -0.0994c-0.3604,-0.3604 -1.7423,-2.373 -1.9582,-2.849l-0.6623 -0.0008c0.0729,0.4802 2.1859,2.68 2.8629,3.4494 -0.0716,0.2938 -0.3501,0.577 -0.4184,0.8441 0.1574,-0.1272 0.3559,-0.552 0.5233,-0.6433 0.2614,0.4234 0.4855,1.0171 0.7151,1.486 0.1776,0.3499 0.0361,0.2893 -0.3011,0.8594 -0.2208,-0.0633 -1.362,-0.8911 -1.6419,-1.0862 -0.3923,-0.2734 -2.5302,-2.0085 -2.5736,-2.0292l0.0037 0.4855c0.2622,0.1476 1.1318,0.8266 1.1717,1.0416 0.0415,0.2238 -0.3535,1.4732 -0.5278,1.708 -0.0866,-0.0434 -0.1294,-0.0811 -0.2302,-0.1253 0.0005,0.1073 -0.015,0.2445 0.0236,0.3319l1.3907 0.3877 -0.0123 2.0811c0.0637,-0.0275 0.1268,-0.0542 0.1721,-0.0868 0.0129,-0.2716 -0.0144,-1.7925 0.045,-1.9385 0.0801,-0.0001 0.8965,0.0965 0.9507,0.1654 0.0615,0.1264 0.2248,1.9989 0.2149,2.2794l-3.2022 0.1623c0.09,0.9026 0.5778,2.8053 0.6868,3.5761 -0.1751,0.0396 -0.5051,0.224 -0.672,0.3083l-0.0125 0.3878c0.3434,-0.1383 0.944,-0.5933 1.3087,-0.812 0.0964,0.1292 0.5579,1.3571 0.6898,1.678 0.0982,0.2389 -0.054,0.307 -0.227,0.5112 -0.2529,0.2985 -1.3383,1.5551 -1.4367,1.7368l0.0793 0.0543c0.622,-0.4535 1.8598,-2.2369 2.2279,-2.3434 0.4845,0.5717 0.9575,1.2823 1.5143,1.7715l1.4271 -3.1415 0.7966 0.1401 0.0149 -0.2832 -0.7136 -0.0534c-0.0047,-0.1825 0.2106,-0.5793 0.2579,-0.7712l0.9889 0.0008c-0.1628,1.9752 -0.9958,4.3919 -1.2853,6.4635l0.362 -0.0568c0.0859,-0.1786 0.8233,-4.7982 0.9589,-5.4733l0.3391 -1.8217c-0.0251,1.0252 -0.0377,1.3334 -0.2554,2.2831 -0.2828,1.2334 -0.25,2.6564 -0.2648,3.9297l0.3409 0.0019 -0.0263 -3.0654 1.8445 0.2621 -0.0049 0.4505 0.3782 -0.0029c-0.1471,-0.6743 -0.2435,-1.4203 -0.4122,-2.0865l-0.4385 -2.0733 0.5431 -0.1444c0.0876,0.0986 0.1744,0.2862 0.2465,0.4194 0.0765,0.1414 0.1522,0.2835 0.2336,0.4321l3.3285 6.074 0.256 0.005 -3.3579 -6.0752c-0.149,-0.2614 -0.3103,-0.4006 -0.144,-0.7265 1.2326,1.6237 2.4608,3.2505 3.6944,4.8734 0.3428,0.4387 0.1103,0.4054 0.8401,0.4013 -0.0236,-0.0968 -0.018,-0.0506 -0.0901,-0.1385 -1.0119,-1.2407 -3.952,-4.3828 -4.3616,-5.3811 0.0393,-0.0563 0.7391,-0.6358 0.8017,-0.6348 0.0814,0.0014 1.3492,0.8833 1.4687,0.96 0.3246,0.2142 2.2627,1.4166 2.4265,1.6135 -0.1103,0.199 -0.6797,0.7214 -0.8132,0.8538 -0.2625,0.2604 -0.1939,0.1716 -0.1939,0.6509 0.0001,0.2166 -0.0232,0.6341 0.0131,0.8263 0.1764,-0.3364 0.1323,-0.446 0.5279,-0.9278 0.1723,-0.2098 0.5394,-0.6346 0.6508,-0.8548 -0.25,0.1085 -0.5205,0.4727 -0.7874,0.5882 0.1087,-0.1775 0.9944,-1.0511 1.2553,-1.3346 0.1629,-0.177 0.0911,-0.1744 0.067,-0.4866 -0.0431,-0.5587 -0.1184,-1.2133 -0.1955,-1.7649 -0.0469,-0.3364 -0.0611,-0.2266 -0.2164,-0.4223 -0.1287,-0.1621 -2.4455,-0.5645 -2.9734,-0.7067 -0.2561,-0.069 -0.3352,-0.0245 -0.4885,0.1076 0.0066,0.0044 0.0175,0.0014 0.0212,0.0109 0.5053,0.1403 3.2298,0.7833 3.4067,0.9136l0.0338 2.2472c-0.9939,-0.5053 -2.1282,-1.3289 -3.0727,-1.9587 -0.4488,-0.2889 -1.2462,-0.5152 -1.7809,-0.7366 -0.1032,-0.0427 -0.2188,-0.1673 -0.2751,-0.2531 -0.0835,0.0613 -0.1496,0.1015 -0.2356,0.1428l0.186 0.5483c-0.5455,0.1397 -0.6938,0.2953 -1.2481,0.5069 -0.2287,0.0872 -0.4731,0.0566 -0.7577,0.0463 -0.2276,-0.0082 -1.3925,-0.1161 -1.5305,-0.1967 -0.2278,-0.1332 -0.7396,-1.7581 -0.7539,-1.8895 0.1881,-0.1595 0.3992,-0.4175 0.5616,-0.6143 0.1249,-0.1515 0.1579,-0.5045 0.1879,-0.7091 0.0405,-0.2755 0.2047,-0.2573 0.5241,-0.3728 0.1269,-0.0459 0.2909,-0.1361 0.441,-0.1726 0.3469,-0.0844 0.7233,0.1014 1.0481,0.1846l-0.0659 -0.5038c0.3888,-0.3138 0.4804,-0.1716 0.5372,-0.5868 0.0166,-0.1213 0.0343,-0.2218 0.0414,-0.3496 0.0959,0.0214 0.3402,0.1782 0.391,0.2404 0.1101,-0.0419 0.2178,-0.1267 0.3028,-0.2026 -0.1224,-0.1285 -0.3239,-0.1459 -0.4265,-0.2893l0.4186 -2.0592c0.4216,0.2492 0.9006,0.8409 1.3187,1.066 0.0603,-0.0765 0.1527,-0.247 0.2019,-0.3379 -0.0981,-0.1402 -1.1768,-1.267 -1.3734,-1.3927l-0.1 0.4114c-0.0259,-0.2209 0.0436,-0.6112 0.0646,-0.8569 0.0355,-0.4162 -0.1233,-0.4308 -0.1625,-0.7571 0.3878,0.1632 1.8254,1.1351 2.2845,1.3446 -0.1958,0.4907 -0.7193,1.263 -0.8419,1.7124 -0.0939,-0.0274 -0.0401,-0.0089 -0.1155,-0.0606 -0.1025,0.0749 -0.2496,0.4062 -0.2974,0.5319 0.1838,-0.0915 0.3642,-0.2398 0.5281,-0.3543 0.2595,-0.1811 0.2381,-0.1609 0.365,-0.5018 0.1418,-0.3808 0.3844,-0.8942 0.4757,-1.2656 0.1988,0.1789 0.3403,0.5669 0.5193,0.7843 0.0893,-0.0209 0.2527,-0.1391 0.3044,-0.2032 -0.1446,-0.2356 -1.8956,-2.9924 -2.1563,-3.242 -1.3655,0.1734 -2.5618,0.423 -4.0004,0.4772l-0.145 -1.2476 -0.33 -0.0044 0.2043 2.2545 -1.1561 0.1599c-0.1213,-0.4378 -0.8281,-2.7787 -1.0592,-3.1847l-0.2483 -0.0009c0.0634,0.493 1.1797,2.9093 1.1412,3.1324 -0.0093,0.0539 -0.017,0.048 -0.0365,0.0745 -0.072,0.0981 -0.978,1.1446 -1.0832,1.2128zm2.5953 -1.8596c0.1087,-0.1161 0.6394,-0.2865 0.8237,-0.3723 0.1342,-0.0624 2.8172,-0.3528 3.2073,-0.325 0.3997,0.5606 0.7841,1.2532 1.1531,1.846 -0.6557,-0.3548 -1.3099,-0.7088 -1.9685,-1.0577 -0.1688,-0.0894 -0.2174,-0.1577 -0.458,-0.1645 -0.3864,-0.011 -0.7616,-0.0376 -1.147,-0.0564l0.2299 0.1792c0.2684,0.234 0.3428,0.0678 0.9348,0.0765 0.1308,0.6525 0.169,0.7987 -0.1334,1.2406 -0.1141,-0.0513 -0.401,-0.3769 -0.5373,-0.4817 -0.6646,-0.5113 -1.2357,-0.9069 -2.1048,-0.8847zm0.353 0.2597c0.47,0.1504 1.6129,0.529 1.7635,0.8592l-1.6063 0.1197 -0.1572 -0.9789zm-1.1181 1.129c0.1521,-0.056 0.7017,-0.233 0.8979,-0.2502l0.3309 2.1549 -0.6271 0.0948c-0.112,-0.3944 -0.6025,-1.7377 -0.6017,-1.9995zm1.104 0.0761c0.182,-0.0231 0.3532,-0.0654 0.5371,-0.0784 0.5626,-0.0396 1.3476,0.025 1.8209,0.2677 -0.0466,0.2848 -0.457,2.383 -0.5185,2.5173l-1.1366 -0.1139c-0.0698,-0.0868 -0.1911,-0.4174 -0.2552,-0.553 -0.0553,-0.1169 -0.1272,-0.3335 -0.2064,-0.4684l-0.2413 -1.5713zm-1.8942 -0.5909c0.5295,-0.0234 1.241,-0.1727 1.7363,-0.1409 -0.4659,0.1444 -0.9524,0.3107 -1.4288,0.441 -0.1837,0.0502 -0.1839,0.0739 -0.3079,0.1831l-0.7555 0.6311c0.0189,-0.0459 0.537,-0.6287 0.756,-1.1143zm-0.5709 1.3887c0.0516,-0.1072 0.9325,-0.785 1.0066,-0.8216 0.0409,0.0539 0.3461,0.7096 0.3639,0.7869 -0.1064,0.0607 -0.1685,0.0905 -0.3118,0.1135 0.071,0.2432 0.4176,0.8305 0.5468,1.1597 -0.0469,0.0856 -0.438,0.3629 -0.5411,0.4088 -0.0714,-0.1749 -0.929,-1.3928 -1.0644,-1.6472zm1.678 1.7048c0.1602,-0.0483 0.4853,-0.1891 0.6308,-0.1778 0.17,0.2886 0.3503,0.8864 0.441,1.245 -0.0904,0.0728 -0.3013,0.244 -0.4121,0.2794l-0.6597 -1.3466zm-1.9527 1.2987c-0.3945,-0.4755 -0.8784,-0.5312 -1.1666,-1.2349 0.7874,0.4607 1.5833,0.9833 2.3597,1.4663 -0.0368,0.1512 -0.0953,0.5896 -0.1721,0.6809 -0.3897,-0.1298 -0.7634,-0.3235 -1.1681,-0.4572l0.1471 -0.4552zm4.4573 -0.8594l-0.139 0.7782c-0.1379,-0.0173 -0.6673,-0.11 -0.7782,-0.1488 -0.1255,-0.0439 -0.16,-0.573 -0.1662,-0.7302l1.0834 0.1008zm-3.4628 0.5411c0.0321,-0.0881 0.4014,-0.4687 0.4253,-0.487l0.8177 0.95c-0.0892,0.093 -0.4279,0.3342 -0.5585,0.3577 -0.1233,-0.2113 -0.5211,-0.583 -0.6845,-0.8207zm-3.7813 0.2172c0.0077,-0.0853 0.5482,-1.4211 0.596,-1.477 0.2942,0.2996 0.5557,0.5771 0.8684,0.8548 0.9044,0.8029 1.0142,0.5051 0.8525,1.1712 -0.3,-0.0272 -0.8435,-0.1992 -1.17,-0.2739 -0.3617,-0.0827 -0.7889,-0.1698 -1.1469,-0.2751zm2.8036 2.5065l-0.3103 -0.0005 -0.0125 -1.5008 0.5227 0.0962 -0.1999 1.4051zm0.8054 -1.2316l0.1518 1.5183 -0.8407 -0.0313 0.2743 -1.306c0.0193,-0.092 0.3139,-0.1471 0.4147,-0.181zm-0.5419 1.9382l0.9936 -0.13 0.1786 0.8092c-0.0963,0.0788 -0.7197,0.3675 -0.8457,0.4066 -0.0355,-0.2051 -0.354,-0.9727 -0.3266,-1.0858zm-3.7062 0.3901l3.4903 -0.5177 0.245 1.3653c-0.376,0.1526 -1.0486,0.8676 -1.3751,0.9796 -0.0359,-0.2377 -0.2991,-1.0398 -0.3704,-1.4125 -0.0418,0.0722 0.1185,1.3087 0.0999,1.602l-1.4885 0.7794 -0.6013 -2.7961zm3.5788 2.732l-0.1158 -0.1298c-0.2648,0.3143 -0.5393,0.6284 -0.7995,0.9454l-0.5508 -1.1121 2.1897 -1.6266c0.1107,-0.066 0.7912,-0.3565 0.903,-0.3794l0.0904 0.3782c-0.0967,0.0667 -0.1957,0.087 -0.2753,0.1704 -0.1031,0.1078 0.019,0.1698 -0.3944,0.5026l-1.0473 1.2513zm3.1085 -0.5857l-0.5086 -0.0254 0.209 -0.9985 0.5508 -0.0207 -0.2511 1.0446zm-1.2857 0.6418c-0.1317,-0.0458 -0.7389,-0.5543 -0.8971,-0.6834l1.2736 -0.6252c-0.0531,0.4217 -0.2833,0.8892 -0.3765,1.3086zm1.9033 -0.6418c0.0193,-0.1735 0.075,-0.6643 0.1639,-0.7728 0.0433,-0.0434 0.5518,-0.0751 0.6526,-0.08l0.1718 0.6976 -0.9883 0.1553zm-5.9918 0.7465c0.1098,-0.0752 0.4968,-0.2799 0.6163,-0.3265 0.067,0.0828 0.6173,1.097 0.5774,1.2234 -0.018,0.057 -0.5247,0.469 -0.6281,0.5365 -0.0598,-0.1037 -0.5587,-1.3513 -0.5656,-1.4335zm2.5804 3.2962c-0.227,-0.2122 -1.0919,-1.7101 -1.217,-1.9073 0.2666,-0.4921 1.1544,-1.5573 1.5266,-2.0565l1.0562 0.7544c-0.4271,1.0579 -0.8949,2.1715 -1.3659,3.2094zm3.2763 -3.6984c0.2099,-0.0458 0.9759,-0.2817 1.0787,-0.2748l0.4009 2.4445 -1.7924 -0.1844 0.3128 -1.9853z"/>
</symbol>
 <g id="Ebene_x0020_1">
  <metadata id="CorelCorpID_0Corel-Layer"/>
  <use id="ISO_x0020_7010_x0020_E025_0" transform="scale(0.571429 0.571429)" width="35" height="35" xlink:href="#ISO_x0020_7010_x0020_E025"/>
 </g>
</svg>
